<svg width="1372" height="310" xmlns="http://www.w3.org/2000/svg" xmlns:xlink="http://www.w3.org/1999/xlink" xml:space="preserve" overflow="hidden"><defs><clipPath id="clip0"><rect x="-36" y="410" width="1372" height="310"/></clipPath><clipPath id="clip1"><rect x="-36" y="412" width="1372" height="308"/></clipPath><clipPath id="clip2"><rect x="-36" y="412" width="1372" height="406"/></clipPath></defs><g clip-path="url(#clip0)" transform="translate(36 -410)"><g clip-path="url(#clip1)"><g clip-path="url(#clip2)"><path d="M-118.293 757.078 785.038 757.078 785.038 777.69-118.293 777.69Z" fill="#EFD765" transform="matrix(1.0015 0 0 1 -35.5171 412.314)"/><text fill="#EFD765" font-family="Arial,Arial_MSFontService,sans-serif" font-weight="400" font-size="12" transform="matrix(1.79502 0 0 1.79232 -153.907 1185)">1173</text><text fill="#EFD765" font-family="Arial,Arial_MSFontService,sans-serif" font-weight="400" font-size="12" transform="matrix(1.79502 0 0 1.79232 -105.441 1185)">.</text><text fill="#EFD765" font-family="Arial,Arial_MSFontService,sans-serif" font-weight="400" font-size="12" transform="matrix(1.79502 0 0 1.79232 -100.056 1185)">235</text><path d="M101.625 65.5991 36.0257 27.781 36.0257 103.417Z" fill="#EFD765" transform="matrix(1.0015 0 0 1 -35.5171 412.314)"/><path d="M244.832 65.5991 179.232 27.781 179.232 103.417Z" fill="#EFD765" transform="matrix(1.0015 0 0 1 -35.5171 412.314)"/><path d="M101.625 229.059 36.0257 191.241 36.0257 266.877Z" fill="#EFD765" transform="matrix(1.0015 0 0 1 -35.5171 412.314)"/><path d="M101.625 310.431 36.0257 272.433 36.0257 348.249Z" fill="#EFD765" transform="matrix(1.0015 0 0 1 -35.5171 412.314)"/><path d="M38.1765 269.924 103.776 231.927 103.776 307.742Z" fill="#EFD765" transform="matrix(1.0015 0 0 1 -35.5171 412.314)"/><path d="M38.1765 350.758 103.776 312.761 103.776 388.576Z" fill="#EFD765" transform="matrix(1.0015 0 0 1 -35.5171 412.314)"/><path d="M173.318 187.836 107.719 150.018 107.719 225.833Z" fill="#EFD765" transform="matrix(1.0015 0 0 1 -35.5171 412.314)"/><path d="M173.318 269.924 107.719 231.927 107.719 307.742Z" fill="#EFD765" transform="matrix(1.0015 0 0 1 -35.5171 412.314)"/><path d="M110.049 229.059 175.648 191.241 175.648 266.877Z" fill="#EFD765" transform="matrix(1.0015 0 0 1 -35.5171 412.314)"/><path d="M173.318 350.758 107.719 312.761 107.719 388.576Z" fill="#EFD765" transform="matrix(1.0015 0 0 1 -35.5171 412.314)"/><path d="M110.049 310.431 175.648 272.433 175.648 348.249Z" fill="#EFD765" transform="matrix(1.0015 0 0 1 -35.5171 412.314)"/><path d="M38.1765 187.836 103.776 150.018 103.776 225.833Z" fill="#EFD765" transform="matrix(1.0015 0 0 1 -35.5171 412.314)"/><path d="M244.832 229.059 179.232 191.241 179.232 266.877Z" fill="#EFD765" transform="matrix(1.0015 0 0 1 -35.5171 412.314)"/><path d="M244.832 310.431 179.232 272.433 179.232 348.249Z" fill="#EFD765" transform="matrix(1.0015 0 0 1 -35.5171 412.314)"/><path d="M181.383 269.924 246.982 231.927 246.982 307.742Z" fill="#EFD765" transform="matrix(1.0015 0 0 1 -35.5171 412.314)"/><path d="M181.383 350.758 246.982 312.761 246.982 388.576Z" fill="#EFD765" transform="matrix(1.0015 0 0 1 -35.5171 412.314)"/><path d="M387.501 229.059 321.902 191.241 321.902 266.877Z" fill="#EFD765" transform="matrix(1.0015 0 0 1 -35.5171 412.314)"/><path d="M387.501 310.431 321.902 272.433 321.902 348.249Z" fill="#EFD765" transform="matrix(1.0015 0 0 1 -35.5171 412.314)"/><path d="M324.232 269.924 389.831 231.927 389.831 307.742Z" fill="#EFD765" transform="matrix(1.0015 0 0 1 -35.5171 412.314)"/><path d="M530.17 229.059 464.571 191.241 464.571 266.877Z" fill="#EFD765" transform="matrix(1.0015 0 0 1 -35.5171 412.314)"/><path d="M530.17 310.431 464.571 272.433 464.571 348.249Z" fill="#EFD765" transform="matrix(1.0015 0 0 1 -35.5171 412.314)"/><path d="M466.901 269.924 532.5 231.927 532.5 307.742Z" fill="#EFD765" transform="matrix(1.0015 0 0 1 -35.5171 412.314)"/><path d="M324.232 350.758 389.831 312.761 389.831 388.576Z" fill="#EFD765" transform="matrix(1.0015 0 0 1 -35.5171 412.314)"/><path d="M316.704 187.836 251.105 150.018 251.105 225.833Z" fill="#EFD765" transform="matrix(1.0015 0 0 1 -35.5171 412.314)"/><path d="M316.704 269.924 251.105 231.927 251.105 307.742Z" fill="#EFD765" transform="matrix(1.0015 0 0 1 -35.5171 412.314)"/><path d="M253.256 229.059 318.855 191.241 318.855 266.877Z" fill="#EFD765" transform="matrix(1.0015 0 0 1 -35.5171 412.314)"/><path d="M316.704 350.758 251.105 312.761 251.105 388.576Z" fill="#EFD765" transform="matrix(1.0015 0 0 1 -35.5171 412.314)"/><path d="M253.256 310.431 318.855 272.433 318.855 348.249Z" fill="#EFD765" transform="matrix(1.0015 0 0 1 -35.5171 412.314)"/><path d="M744.173 269.924 678.574 231.927 678.574 307.742Z" fill="#EFD765" transform="matrix(1.0015 0 0 1 -35.5171 412.314)"/><path d="M680.904 229.059 746.503 191.241 746.503 266.877Z" fill="#EFD765" transform="matrix(1.0015 0 0 1 -35.5171 412.314)"/><path d="M744.173 350.758 678.574 312.761 678.574 388.576Z" fill="#EFD765" transform="matrix(1.0015 0 0 1 -35.5171 412.314)"/><path d="M680.904 310.431 746.503 272.433 746.503 348.249Z" fill="#EFD765" transform="matrix(1.0015 0 0 1 -35.5171 412.314)"/><path d="M887.022 269.924 821.422 231.927 821.422 307.742Z" fill="#EFD765" transform="matrix(1.0015 0 0 1 -35.5171 412.314)"/><path d="M887.022 350.758 821.422 312.761 821.422 388.576Z" fill="#EFD765" transform="matrix(1.0015 0 0 1 -35.5171 412.314)"/><path d="M823.573 310.431 889.172 272.433 889.172 348.249Z" fill="#EFD765" transform="matrix(1.0015 0 0 1 -35.5171 412.314)"/><path d="M466.901 350.758 532.5 312.761 532.5 388.576Z" fill="#EFD765" transform="matrix(1.0015 0 0 1 -35.5171 412.314)"/><path d="M672.301 229.059 606.702 191.241 606.702 266.877Z" fill="#EFD765" transform="matrix(1.0015 0 0 1 -35.5171 412.314)"/><path d="M672.301 310.431 606.702 272.433 606.702 348.249Z" fill="#EFD765" transform="matrix(1.0015 0 0 1 -35.5171 412.314)"/><path d="M609.032 269.924 674.631 231.927 674.631 307.742Z" fill="#EFD765" transform="matrix(1.0015 0 0 1 -35.5171 412.314)"/><path d="M609.032 350.758 674.631 312.761 674.631 388.576Z" fill="#EFD765" transform="matrix(1.0015 0 0 1 -35.5171 412.314)"/><path d="M1099.95 229.059 1034.35 191.241 1034.35 266.877Z" fill="#EFD765" transform="matrix(1.0015 0 0 1 -35.5171 412.314)"/><path d="M1099.95 310.431 1034.35 272.433 1034.35 348.249Z" fill="#EFD765" transform="matrix(1.0015 0 0 1 -35.5171 412.314)"/><path d="M1036.68 269.924 1102.28 231.927 1102.28 307.742Z" fill="#EFD765" transform="matrix(1.0015 0 0 1 -35.5171 412.314)"/><path d="M1036.68 350.758 1102.28 312.761 1102.28 388.576Z" fill="#EFD765" transform="matrix(1.0015 0 0 1 -35.5171 412.314)"/><path d="M1242.8 229.059 1177.2 191.241 1177.2 266.877Z" fill="#EFD765" transform="matrix(1.0015 0 0 1 -35.5171 412.314)"/><path d="M1242.8 310.431 1177.2 272.433 1177.2 348.249Z" fill="#EFD765" transform="matrix(1.0015 0 0 1 -35.5171 412.314)"/><path d="M1179.35 269.924 1244.95 231.927 1244.95 307.742Z" fill="#EFD765" transform="matrix(1.0015 0 0 1 -35.5171 412.314)"/><path d="M1179.35 350.758 1244.95 312.761 1244.95 388.576Z" fill="#EFD765" transform="matrix(1.0015 0 0 1 -35.5171 412.314)"/><path d="M815.149 310.431 749.55 272.433 749.55 348.249Z" fill="#EFD765" transform="matrix(1.0015 0 0 1 -35.5171 412.314)"/><path d="M751.701 269.924 817.3 231.927 817.3 307.742Z" fill="#EFD765" transform="matrix(1.0015 0 0 1 -35.5171 412.314)"/><path d="M751.701 350.758 817.3 312.761 817.3 388.576Z" fill="#EFD765" transform="matrix(1.0015 0 0 1 -35.5171 412.314)"/><path d="M1029.69 269.924 964.092 231.927 964.092 307.742Z" fill="#EFD765" transform="matrix(1.0015 0 0 1 -35.5171 412.314)"/><path d="M1029.69 350.758 964.092 312.761 964.092 388.576Z" fill="#EFD765" transform="matrix(1.0015 0 0 1 -35.5171 412.314)"/><path d="M966.422 310.431 1032.02 272.433 1032.02 348.249Z" fill="#EFD765" transform="matrix(1.0015 0 0 1 -35.5171 412.314)"/><path d="M957.818 310.431 892.219 272.433 892.219 348.249Z" fill="#EFD765" transform="matrix(1.0015 0 0 1 -35.5171 412.314)"/><path d="M894.549 269.924 960.148 231.927 960.148 307.742Z" fill="#EFD765" transform="matrix(1.0015 0 0 1 -35.5171 412.314)"/><path d="M1029.69 187.836 964.092 150.018 964.092 225.833Z" fill="#EFD765" transform="matrix(1.0015 0 0 1 -35.5171 412.314)"/><path d="M894.549 187.836 960.148 150.018 960.148 225.833Z" fill="#EFD765" transform="matrix(1.0015 0 0 1 -35.5171 412.314)"/><path d="M1036.68 187.836 1102.28 150.018 1102.28 225.833Z" fill="#EFD765" transform="matrix(1.0015 0 0 1 -35.5171 412.314)"/><path d="M1314.13 187.836 1248.53 150.018 1248.53 225.833Z" fill="#EFD765" transform="matrix(1.0015 0 0 1 -35.5171 412.314)"/><path d="M1314.13 269.924 1248.53 231.927 1248.53 307.742Z" fill="#EFD765" transform="matrix(1.0015 0 0 1 -35.5171 412.314)"/><path d="M1314.13 350.758 1248.53 312.761 1248.53 388.576Z" fill="#EFD765" transform="matrix(1.0015 0 0 1 -35.5171 412.314)"/><path d="M1250.68 229.059 1316.28 191.241 1316.28 266.877Z" fill="#EFD765" transform="matrix(1.0015 0 0 1 -35.5171 412.314)"/><path d="M1250.68 310.431 1316.28 272.433 1316.28 348.249Z" fill="#EFD765" transform="matrix(1.0015 0 0 1 -35.5171 412.314)"/><path d="M1250.68 147.15 1316.28 109.332 1316.28 185.147Z" fill="#EFD765" transform="matrix(1.0015 0 0 1 -35.5171 412.314)"/><path d="M894.549 350.758 960.148 312.761 960.148 388.576Z" fill="#EFD765" transform="matrix(1.0015 0 0 1 -35.5171 412.314)"/><path d="M1171.82 269.924 1106.22 231.927 1106.22 307.742Z" fill="#EFD765" transform="matrix(1.0015 0 0 1 -35.5171 412.314)"/><path d="M1108.55 229.059 1174.15 191.241 1174.15 266.877Z" fill="#EFD765" transform="matrix(1.0015 0 0 1 -35.5171 412.314)"/><path d="M1108.55 310.431 1174.15 272.433 1174.15 348.249Z" fill="#EFD765" transform="matrix(1.0015 0 0 1 -35.5171 412.314)"/><path d="M601.504 187.836 535.905 150.018 535.905 225.833Z" fill="#EFD765" transform="matrix(1.0015 0 0 1 -35.5171 412.314)"/><path d="M538.235 229.059 603.834 191.241 603.834 266.877Z" fill="#EFD765" transform="matrix(1.0015 0 0 1 -35.5171 412.314)"/><path d="M601.504 350.758 535.905 312.761 535.905 388.576Z" fill="#EFD765" transform="matrix(1.0015 0 0 1 -35.5171 412.314)"/><path d="M538.235 310.431 603.834 272.433 603.834 348.249Z" fill="#EFD765" transform="matrix(1.0015 0 0 1 -35.5171 412.314)"/><path d="M458.297 187.836 392.698 150.018 392.698 225.833Z" fill="#EFD765" transform="matrix(1.0015 0 0 1 -35.5171 412.314)"/><path d="M672.301 147.15 606.702 109.332 606.702 185.147Z" fill="#EFD765" transform="matrix(1.0015 0 0 1 -35.5171 412.314)"/><path d="M1108.55 147.15 1174.15 109.332 1174.15 185.147Z" fill="#EFD765" transform="matrix(1.0015 0 0 1 -35.5171 412.314)"/><path d="M395.028 229.059 460.628 191.241 460.628 266.877Z" fill="#EFD765" transform="matrix(1.0015 0 0 1 -35.5171 412.314)"/><path d="M458.297 350.758 392.698 312.761 392.698 388.576Z" fill="#EFD765" transform="matrix(1.0015 0 0 1 -35.5171 412.314)"/><path d="M395.028 310.431 460.628 272.433 460.628 348.249Z" fill="#EFD765" transform="matrix(1.0015 0 0 1 -35.5171 412.314)"/><path d="M181.383 187.836 246.982 150.018 246.982 225.833Z" fill="#EFD765" transform="matrix(1.0015 0 0 1 -35.5171 412.314)"/></g></g></g></svg>