<svg width="30" height="31" viewBox="0 0 30 31" fill="none" xmlns="http://www.w3.org/2000/svg">
<path fill-rule="evenodd" clip-rule="evenodd" d="M15 2.75C7.95837 2.75 2.25 8.45837 2.25 15.5C2.25 22.5416 7.95837 28.25 15 28.25C22.0416 28.25 27.75 22.5416 27.75 15.5C27.75 8.45837 22.0416 2.75 15 2.75ZM0.25 15.5C0.25 7.3538 6.8538 0.75 15 0.75C23.1462 0.75 29.75 7.3538 29.75 15.5C29.75 23.6462 23.1462 30.25 15 30.25C6.8538 30.25 0.25 23.6462 0.25 15.5Z" fill="black"/>
<path fill-rule="evenodd" clip-rule="evenodd" d="M15.0625 16.0062C14.5102 16.0096 14.0598 15.5646 14.0564 15.0124L14.0058 6.82483C14.0024 6.27255 14.4474 5.82208 14.9996 5.81867C15.5519 5.81527 16.0024 6.26021 16.0058 6.81248L16.0563 15C16.0597 15.5523 15.6148 16.0028 15.0625 16.0062Z" fill="black"/>
<path fill-rule="evenodd" clip-rule="evenodd" d="M14.6449 15.8479C14.2059 15.5127 14.1218 14.8851 14.457 14.4462L19.426 7.93873C19.7612 7.49978 20.3887 7.41566 20.8277 7.75084C21.2666 8.08601 21.3507 8.71356 21.0156 9.15251L16.0465 15.66C15.7114 16.0989 15.0838 16.183 14.6449 15.8479Z" fill="black"/>
</svg>
