<svg width="58" height="56" viewBox="0 0 58 56" fill="none" xmlns="http://www.w3.org/2000/svg">
<path d="M44.7062 29.2685C44.7062 32.3044 42.0542 34.9445 39.0242 34.9445H26.4601V38.7365C26.4601 40.6865 28.1881 42.4144 30.1381 42.4144H35.8321C36.102 42.4144 36.342 42.5164 36.5222 42.6904L47.1782 52.0564V43.4164C47.1782 42.8644 47.6221 42.4144 48.1743 42.4144H51.7022C53.7122 42.4144 55.3802 40.7465 55.3802 38.7365V24.0725C55.3802 22.0504 53.7302 20.3945 51.7022 20.3945H44.7062V29.2685L44.7062 29.2685ZM30.3661 15.6845C31.4701 15.6845 32.3642 16.5845 32.3642 17.6884C32.3642 18.7923 31.4703 19.6864 30.3661 19.6864C29.2623 19.6864 28.3681 18.7925 28.3681 17.6884C28.3681 16.5845 29.2621 15.6845 30.3661 15.6845ZM22.3501 15.6845C23.4482 15.6845 24.354 16.5905 24.354 17.6884C24.354 18.7864 23.448 19.6864 22.3501 19.6864C21.2521 19.6864 20.3521 18.7864 20.3521 17.6884C20.3521 16.5903 21.2521 15.6845 22.3501 15.6845ZM14.3401 15.6845C15.444 15.6845 16.3382 16.5845 16.3382 17.6884C16.3382 18.7864 15.4382 19.6864 14.3401 19.6864C13.2362 19.6864 12.3362 18.7864 12.3362 17.6884C12.3362 16.5903 13.2362 15.6845 14.3401 15.6845ZM24.4622 34.9445H21.924L9.86405 45.5465C9.216 46.1164 8.20215 45.6426 8.208 44.7965V34.9445H5.682C2.58005 34.9445 0 32.3765 0 29.2685V6.10245C0 2.97645 2.55605 0.426453 5.682 0.426453H39.024C42.126 0.426453 44.706 3.00045 44.706 6.10245V18.3965H51.702C54.8219 18.3965 57.378 20.9525 57.378 24.0725V38.7365C57.378 41.8505 54.8161 44.4125 51.702 44.4125H49.176V54.2645C49.1699 55.1106 48.168 55.5905 47.5141 55.0145L35.4601 44.4125H30.1381C27.0842 44.4125 24.4621 41.7904 24.4621 38.7365V34.9445H24.4622ZM42.7022 29.2685V6.10245C42.7022 4.11045 41.0221 2.4245 39.0242 2.4245H5.6822C3.66015 2.4245 2.00425 4.08055 2.00425 6.10245V29.2685C2.00425 31.2784 3.6722 32.9464 5.6822 32.9464H9.20425C9.7562 32.9464 10.2062 33.3964 10.2062 33.9425V42.5825L20.8622 33.2165C21.0423 33.0485 21.2821 32.9466 21.5522 32.9466H39.0243C40.9682 32.9466 42.7022 31.2126 42.7022 29.2686L42.7022 29.2685Z" fill="#D33C32"/>
</svg>
