<svg width="66" height="52" viewBox="0 0 66 52" fill="none" xmlns="http://www.w3.org/2000/svg">
<path d="M4.26742 0.019165H61.2827C62.457 0.019165 63.5254 0.499158 64.298 1.2718C65.0707 2.04445 65.5507 3.11272 65.5507 4.28716V38.6561C65.5507 39.8303 65.0707 40.8988 64.298 41.6714C63.5254 42.444 62.4571 42.9241 61.2827 42.9241H40.1342V46.0005H45.986C46.5572 46.0005 47.021 46.4644 47.021 47.0355V50.6385C47.021 51.2097 46.5572 51.6735 45.986 51.6735H19.5647C18.9935 51.6735 18.5297 51.2097 18.5297 50.6385V47.0355C18.5297 46.4644 18.9935 46.0005 19.5647 46.0005H25.4165V42.9241H4.26799C3.09373 42.9241 2.02526 42.4441 1.25264 41.6714C0.48001 40.8988 0 39.8305 0 38.6561V4.28716C0 3.1129 0.479993 2.04443 1.25264 1.2718C2.02528 0.499175 3.09356 0.019165 4.26799 0.019165H4.26742ZM22.0418 11.0919C22.4657 10.7106 23.1199 10.7456 23.5013 11.1694C23.8827 11.5933 23.8477 12.2476 23.4239 12.629L17.7395 17.7323L23.4239 22.8357C23.8477 23.217 23.8827 23.8716 23.5013 24.2952C23.12 24.719 22.4654 24.7541 22.0418 24.3727L15.4241 18.4237C15.0428 17.9999 15.0778 17.3456 15.5016 16.9642L22.0417 11.0923L22.0418 11.0919ZM42.126 12.6289C41.7022 12.2475 41.6671 11.593 42.0485 11.1694C42.4299 10.7456 43.0844 10.7105 43.508 11.0919L50.0481 16.9638C50.4719 17.3452 50.507 17.9997 50.1256 18.4233L43.5079 24.3723C43.0841 24.7537 42.4298 24.7186 42.0484 24.2948C41.667 23.8709 41.702 23.2167 42.1259 22.8353L47.8103 17.7319L42.1259 12.6285L42.126 12.6289ZM36.1132 11.2377C36.4564 10.7847 37.1033 10.6966 37.5566 11.0396C38.0096 11.3828 38.0977 12.0297 37.7547 12.483L28.8364 24.2268C28.4932 24.6798 27.8463 24.7678 27.3931 24.4249C26.94 24.0817 26.852 23.4348 27.195 22.9815L36.1132 11.2377ZM32.7701 39.3173C32.1989 39.3173 31.7351 38.8534 31.7351 38.2823C31.7351 37.7111 32.1989 37.2473 32.7701 37.2473H32.78C33.3512 37.2473 33.815 37.7111 33.815 38.2823C33.815 38.8534 33.3512 39.3173 32.78 39.3173H32.7701ZM38.0641 45.9999V42.9234H27.4859V45.9999H38.0641ZM44.9509 48.0699H20.5997V49.6029H44.9509V48.0699ZM2.06971 33.3746H63.4797V4.28653C63.4797 3.68347 63.232 3.13337 62.8335 2.73495C62.4351 2.33649 61.885 2.08876 61.2819 2.08876H4.26667C3.66361 2.08876 3.11351 2.33651 2.71509 2.73495C2.31663 3.13341 2.06891 3.68347 2.06891 4.28653V33.3746H2.06971ZM63.4797 35.4446H2.06971V38.6557C2.06971 39.2587 2.31746 39.8088 2.7159 40.2072C3.11436 40.6057 3.66442 40.8534 4.26748 40.8534H61.2828C61.8858 40.8534 62.4359 40.6057 62.8343 40.2072C63.2328 39.8088 63.4805 39.2587 63.4805 38.6557V35.4446H63.4797Z" fill="#D33C32"/>
</svg>
