<svg width="48" height="49" viewBox="0 0 48 49" fill="none" xmlns="http://www.w3.org/2000/svg">
<path d="M46.9689 0.502563H1.02496C0.75323 0.502563 0.492444 0.610399 0.300291 0.802853C0.107837 0.995041 0 1.25583 0 1.52753V47.4714C0 47.7432 0.107837 48.004 0.300291 48.1961C0.492478 48.3886 0.753264 48.4964 1.02496 48.4964H46.9689C47.2406 48.4964 47.5014 48.3886 47.6936 48.1961C47.886 48.0039 47.9938 47.7431 47.9938 47.4714V1.52753C47.9938 1.25579 47.886 0.995007 47.6936 0.802853C47.5014 0.610399 47.2406 0.502563 46.9689 0.502563ZM45.9439 2.55256V7.59351H2.04996V2.55256H45.9439ZM2.04996 46.4465V9.64351H45.9439V46.4465H2.04996Z" fill="#D33C32"/>
<path d="M6.63854 5.28251C6.63854 5.79234 6.22507 6.20583 5.71522 6.20583C5.20539 6.20583 4.7919 5.79236 4.7919 5.28251C4.7919 4.77268 5.20537 4.35919 5.71522 4.35919C6.22505 4.35919 6.63854 4.77266 6.63854 5.28251Z" fill="#D33C32"/>
<path d="M11.6118 5.28251C11.6118 5.79234 11.1984 6.20583 10.6885 6.20583C10.1784 6.20583 9.7652 5.79236 9.7652 5.28251C9.7652 4.77268 10.1784 4.35919 10.6885 4.35919C11.1983 4.35919 11.6118 4.77266 11.6118 5.28251Z" fill="#D33C32"/>
<path d="M16.5851 5.28251C16.5851 5.79234 16.1719 6.20583 15.6618 6.20583C15.152 6.20583 14.7385 5.79236 14.7385 5.28251C14.7385 4.77268 15.152 4.35919 15.6618 4.35919C16.1719 4.35919 16.5851 4.77266 16.5851 5.28251Z" fill="#D33C32"/>
<path d="M7.26584 32.197H28.3911C28.6628 32.197 28.9236 32.0891 29.1158 31.8967C29.3082 31.7045 29.4161 31.4437 29.4161 31.172V14.7495C29.4161 14.4777 29.3082 14.2169 29.1158 14.0248C28.9236 13.8323 28.6628 13.7245 28.3911 13.7245H7.26584C6.99411 13.7245 6.73332 13.8323 6.54117 14.0248C6.34871 14.217 6.24088 14.4778 6.24088 14.7495V31.172C6.24088 31.4437 6.34871 31.7045 6.54117 31.8967C6.73335 32.0891 6.99414 32.197 7.26584 32.197ZM8.29084 15.7744H27.3661V30.147H8.29084V15.7744Z" fill="#D33C32"/>
<path d="M40.7273 14.0934H33.2667C32.9005 14.0934 32.562 14.2888 32.3789 14.6059C32.196 14.923 32.196 15.3137 32.3789 15.6309C32.562 15.948 32.9005 16.1434 33.2667 16.1434H40.7273C41.0935 16.1434 41.432 15.948 41.6151 15.6309C41.7979 15.3138 41.7979 14.923 41.6151 14.6059C41.432 14.2888 41.0935 14.0934 40.7273 14.0934Z" fill="#D33C32"/>
<path d="M40.7273 19.4453H33.2667C32.9005 19.4453 32.562 19.6406 32.3789 19.9578C32.196 20.2749 32.196 20.6656 32.3789 20.9828C32.562 21.2999 32.9005 21.4953 33.2667 21.4953H40.7273C41.0935 21.4953 41.432 21.2999 41.6151 20.9828C41.7979 20.6656 41.7979 20.2749 41.6151 19.9578C41.432 19.6406 41.0935 19.4453 40.7273 19.4453Z" fill="#D33C32"/>
<path d="M40.7273 24.7964H33.2667C32.9005 24.7964 32.562 24.9918 32.3789 25.3089C32.196 25.6261 32.196 26.0168 32.3789 26.3339C32.562 26.6511 32.9005 26.8464 33.2667 26.8464H40.7273C41.0935 26.8464 41.432 26.6511 41.6151 26.3339C41.7979 26.0168 41.7979 25.6261 41.6151 25.3089C41.432 24.9918 41.0935 24.7964 40.7273 24.7964Z" fill="#D33C32"/>
<path d="M40.7273 30.147H33.2667C32.9005 30.147 32.562 30.3424 32.3789 30.6595C32.196 30.9766 32.196 31.3673 32.3789 31.6845C32.562 32.0016 32.9005 32.197 33.2667 32.197H40.7273C41.0935 32.197 41.432 32.0016 41.6151 31.6845C41.7979 31.3674 41.7979 30.9766 41.6151 30.6595C41.432 30.3424 41.0935 30.147 40.7273 30.147Z" fill="#D33C32"/>
<path d="M40.7273 36.2539H7.26586C6.89963 36.2539 6.5612 36.4493 6.37807 36.7664C6.19522 37.0835 6.19522 37.4743 6.37807 37.7914C6.56118 38.1085 6.89965 38.3039 7.26586 38.3039H40.7273C41.0936 38.3039 41.432 38.1085 41.6151 37.7914C41.798 37.4743 41.798 37.0835 41.6151 36.7664C41.432 36.4493 41.0935 36.2539 40.7273 36.2539Z" fill="#D33C32"/>
<path d="M40.7273 41.2026H7.26586C6.89963 41.2026 6.5612 41.398 6.37807 41.7151C6.19522 42.0322 6.19522 42.4229 6.37807 42.7401C6.56118 43.0572 6.89965 43.2526 7.26586 43.2526H40.7273C41.0936 43.2526 41.432 43.0572 41.6151 42.7401C41.798 42.423 41.798 42.0322 41.6151 41.7151C41.432 41.398 41.0935 41.2026 40.7273 41.2026Z" fill="#D33C32"/>
</svg>
